<svg id="图层_1" data-name="图层 1" xmlns="http://www.w3.org/2000/svg" viewBox="0 0 1049 165.33"><defs><style>.cls-1{fill:#231815;}</style></defs><polygon class="cls-1" points="121.11 40.27 69.77 40.27 95.44 84.73 121.11 40.27"/><polygon class="cls-1" points="95.45 165.33 190.91 0 190.77 0 159.91 0 95.45 111.64 46.5 26.85 128.9 26.85 144.4 0 0.08 0 0 0 95.45 165.33"/><path class="cls-1" d="M268.84,205V190.51h46.93a23.67,23.67,0,0,0,1.44-4.33,47.16,47.16,0,0,1,2.89-7.94h23.82c-1.44,4.33-2.89,8.43-4.33,12.27h93.86V205H333.09q-2.89,5.07-6.49,10.83h90.24V229.5A118.22,118.22,0,0,1,380,259.82q19.5,5.79,52,8.66V282.2q-46.94-4.33-72.92-14.44-22.38,7.94-68.58,15.16V269.21q31-3.63,47.65-9.39A155.16,155.16,0,0,1,310,237.44q-16.62,16.62-42.59,28.88V251.88q28.86-20.2,41.87-46.93ZM273.17,184V159.47H297a140,140,0,0,0-5.78-16.61h19.49a56.48,56.48,0,0,1,7.22,16.61h26A88,88,0,0,0,341,150.8a49.11,49.11,0,0,0-2.88-7.94h18.77a56.74,56.74,0,0,1,7.22,16.61h18.77q5-6.5,7.94-17.33h22.38l-2.16,4.33a131.9,131.9,0,0,1-7.22,13h25.26V184H406.73V173.19H294.83V184Zm2.89-45.49V124.09h93.13a195.88,195.88,0,0,0,56.31-6.5v15.17a194.33,194.33,0,0,1-52.7,5.77Zm111.18,91h-70L315,231.66a12.19,12.19,0,0,1-3.61,3.61h26a113.21,113.21,0,0,0,21.66,15.89Q372.79,243.95,387.24,229.5Z" transform="translate(0 -117.59)"/><path class="cls-1" d="M475.54,140.7V124.81H631.48V140.7H570.12a167.6,167.6,0,0,1-12.28,14.44,8.28,8.28,0,0,1-1.44,2.16h8.66v45.49H542V169.58q-23.12,18.78-69.31,31.76v-13q50.52-20.21,70.75-47.65Zm12.27,137.89V209.28H618.49v44.77q.71,25.26-25.27,24.54Zm23.1-14.44h73.65q11.54.74,10.82-11.55V224.44H510.91Zm123.46-62.81q-31.05-18-62.09-26V160.91q35.37,5.07,62.09,18.77Z" transform="translate(0 -117.59)"/><path class="cls-1" d="M682.24,140V124.81h35.37a100.34,100.34,0,0,0,30.33-4.33v15.89a166.88,166.88,0,0,1-22.38,3.6v23.11h21.65v15.16H726.28a113.88,113.88,0,0,0,20.21,40.43v20.94q-13.72-14.45-20.93-26.72v70H704.62V218.67Q696,236,677.91,256.21V235.27a198.06,198.06,0,0,0,26-57H680.07V163.08h24.55V140Zm67.86,99.64V224.44h54.15V117.59h22.38V224.44h20.94v15.17H826.63v43.31H804.25V239.61Zm43.32-32.49q-21-12.27-41.87-16.61V174.63q23.82,2.16,41.87,11.55ZM797,162.36a134.33,134.33,0,0,0-40.43-14.44V132q23.1,1.47,40.43,10.11Z" transform="translate(0 -117.59)"/><path class="cls-1" d="M884.59,157.73v-14.3h17.87v-25h22.16v25h14.3v14.3h-14.3v35.74q7.14-2.15,15.73-4.29v15a22,22,0,0,1-5,1.43,49.61,49.61,0,0,1-10.72,4.29v50q0,21.44-22.16,21.44h-15v-15h7.15c5.24.47,7.86-1.9,7.86-7.15V216.34a39.61,39.61,0,0,0-7.86,1.43q-7.15.72-11.44,1.43V200.62q10.73-1.43,19.3-2.15V157.73Zm60.76-5v-15h37.17v-20h23.59v20h41.46v15h-41.46v25h36.46v15q-11.44,35-32.89,55,15.72,12.18,39.32,20v14.3q-32.9-9.3-55-22.16-21.45,12.14-56.47,22.87V268.53q25.72-9.28,42.17-20.74-19.29-18.57-30.74-47.17H971.8a153.88,153.88,0,0,0,22.87,34.31q14.3-15,24.31-42.18H946.07v-15h36.45v-25Z" transform="translate(0 -117.59)"/></svg>